<svg width="903" height="204" viewBox="0 0 903 204" fill="none" xmlns="http://www.w3.org/2000/svg">
<path d="M60.1507 78.6818C63.5948 76.7017 67.8382 76.7017 71.2824 78.6818L102.867 96.8402C106.311 98.8203 108.433 102.48 108.433 106.44V142.757C108.433 146.717 106.311 150.376 102.867 152.356L71.2824 170.515C67.8382 172.495 63.5948 172.495 60.1507 170.515L28.5658 152.356C25.1217 150.376 23 146.717 23 142.757V106.44C23 102.48 25.1217 98.8203 28.5658 96.8402L60.1507 78.6818Z" fill="black"/>
<path d="M128.185 125.701C127.242 125.701 126.47 125.399 125.869 124.797C125.269 124.194 124.969 123.419 124.969 122.472V38.5353C124.969 37.5883 125.269 36.8135 125.869 36.2109C126.555 35.6083 127.327 35.3069 128.185 35.3069H144.782C145.725 35.3069 146.497 35.6083 147.098 36.2109C147.784 36.8135 148.127 37.5883 148.127 38.5353V69.6565H179.777V38.5353C179.777 37.5883 180.077 36.8135 180.678 36.2109C181.278 35.6083 182.05 35.3069 182.993 35.3069H199.59C200.534 35.3069 201.306 35.6083 201.906 36.2109C202.507 36.8135 202.807 37.5883 202.807 38.5353V80.5038V122.472C202.807 123.419 202.507 124.194 201.906 124.797C201.306 125.399 200.534 125.701 199.59 125.701H182.993C182.05 125.701 181.278 125.399 180.678 124.797C180.077 124.194 179.777 123.419 179.777 122.472V90.318H148.127V122.472C148.127 123.419 147.784 124.194 147.098 124.797C146.497 125.399 145.725 125.701 144.782 125.701H128.185Z" fill="black"/>
<path d="M224.05 125.701C223.193 125.701 222.421 125.399 221.735 124.797C221.134 124.108 220.834 123.333 220.834 122.472V38.5353C220.834 37.5883 221.134 36.8135 221.735 36.2109C222.421 35.6083 223.193 35.3069 224.05 35.3069H241.291C242.234 35.3069 243.006 35.6083 243.606 36.2109C244.293 36.8135 244.636 37.5883 244.636 38.5353V122.472C244.636 123.419 244.293 124.194 243.606 124.797C243.006 125.399 242.234 125.701 241.291 125.701H224.05Z" fill="black"/>
<path d="M288.279 125.701C285.534 125.701 283.776 124.409 283.004 121.827L256.758 39.181L256.5 38.0188C256.5 37.33 256.758 36.7274 257.272 36.2109C257.873 35.6083 258.559 35.3069 259.331 35.3069H275.285C276.485 35.3069 277.472 35.6513 278.244 36.34C279.101 37.0287 279.659 37.8035 279.916 38.6644L298.186 98.3243L316.326 38.6644C316.584 37.8035 317.098 37.0287 317.87 36.34C318.728 35.6513 319.757 35.3069 320.958 35.3069H337.04C337.727 35.3069 338.327 35.6083 338.842 36.2109C339.442 36.7274 339.742 37.33 339.742 38.0188L339.485 39.181L313.239 121.827C312.467 124.409 310.708 125.701 307.964 125.701H288.279Z" fill="black"/>
<path d="M354.97 125.701C354.112 125.701 353.341 125.399 352.654 124.797C352.054 124.108 351.754 123.333 351.754 122.472V38.5353C351.754 37.5883 352.054 36.8135 352.654 36.2109C353.341 35.6083 354.112 35.3069 354.97 35.3069H415.054C415.997 35.3069 416.769 35.6083 417.369 36.2109C417.97 36.8135 418.27 37.5883 418.27 38.5353V50.6739C418.27 51.5348 417.97 52.3096 417.369 52.9983C416.769 53.6009 415.997 53.9022 415.054 53.9022H374.012V71.3353H412.223C413.167 71.3353 413.938 71.6796 414.539 72.3684C415.139 72.971 415.439 73.7458 415.439 74.6928V85.9274C415.439 86.7883 415.139 87.5631 414.539 88.2518C413.938 88.8544 413.167 89.1557 412.223 89.1557H374.012V107.105H416.083C417.026 107.105 417.798 107.407 418.399 108.009C418.999 108.612 419.299 109.387 419.299 110.334V122.472C419.299 123.333 418.999 124.108 418.399 124.797C417.798 125.399 417.026 125.701 416.083 125.701H354.97Z" fill="black"/>
<path d="M32.9946 65.6219C32.7024 65.6219 32.4394 65.5208 32.2056 65.3187C32.0011 65.0878 31.8988 64.8279 31.8988 64.5392V42.1061H24.0963C23.8041 42.1061 23.5411 42.0051 23.3073 41.803C23.1027 41.572 23.0004 41.3122 23.0004 41.0235V36.3896C23.0004 36.072 23.1027 35.8122 23.3073 35.6101C23.5411 35.408 23.8041 35.3069 24.0963 35.3069H47.6791C48.0006 35.3069 48.2636 35.408 48.4682 35.6101C48.6727 35.8122 48.775 36.072 48.775 36.3896V41.0235C48.775 41.341 48.6727 41.6009 48.4682 41.803C48.2636 42.0051 48.0006 42.1061 47.6791 42.1061H39.8766V64.5392C39.8766 64.8279 39.7744 65.0878 39.5698 65.3187C39.3652 65.5208 39.1022 65.6219 38.7808 65.6219H32.9946Z" fill="black"/>
<path d="M53.8546 65.6219C53.5332 65.6219 53.2702 65.5208 53.0656 65.3187C52.8611 65.1166 52.7588 64.8568 52.7588 64.5392V36.3896C52.7588 36.072 52.8611 35.8122 53.0656 35.6101C53.2994 35.408 53.5624 35.3069 53.8546 35.3069H59.5093C59.8307 35.3069 60.0937 35.408 60.2983 35.6101C60.5321 35.8122 60.649 36.072 60.649 36.3896V46.8266H71.4322V36.3896C71.4322 36.072 71.5345 35.8122 71.739 35.6101C71.9436 35.408 72.2066 35.3069 72.5281 35.3069H78.1827C78.5041 35.3069 78.7671 35.408 78.9717 35.6101C79.1763 35.8122 79.2785 36.072 79.2785 36.3896V64.5392C79.2785 64.8568 79.1763 65.1166 78.9717 65.3187C78.7671 65.5208 78.5041 65.6219 78.1827 65.6219H72.5281C72.2066 65.6219 71.9436 65.5208 71.739 65.3187C71.5345 65.1166 71.4322 64.8568 71.4322 64.5392V53.7557H60.649V64.5392C60.649 64.8568 60.5321 65.1166 60.2983 65.3187C60.0937 65.5208 59.8307 65.6219 59.5093 65.6219H53.8546Z" fill="black"/>
<path d="M86.5163 65.6219C86.2241 65.6219 85.9611 65.5208 85.7273 65.3187C85.5228 65.0878 85.4205 64.8279 85.4205 64.5392V36.3896C85.4205 36.072 85.5228 35.8122 85.7273 35.6101C85.9611 35.408 86.2241 35.3069 86.5163 35.3069H106.987C107.308 35.3069 107.571 35.408 107.776 35.6101C107.981 35.8122 108.083 36.072 108.083 36.3896V40.4605C108.083 40.7492 107.981 41.009 107.776 41.24C107.571 41.4421 107.308 41.5431 106.987 41.5431H93.0038V47.3896H106.023C106.344 47.3896 106.607 47.5051 106.812 47.7361C107.016 47.9382 107.118 48.198 107.118 48.5156V52.2833C107.118 52.572 107.016 52.8319 106.812 53.0628C106.607 53.2649 106.344 53.366 106.023 53.366H93.0038V59.3857H107.338C107.659 59.3857 107.922 59.4867 108.127 59.6888C108.331 59.8909 108.433 60.1508 108.433 60.4683V64.5392C108.433 64.8279 108.331 65.0878 108.127 65.3187C107.922 65.5208 107.659 65.6219 107.338 65.6219H86.5163Z" fill="black"/>
<path d="M124.957 171.579C124.666 171.579 124.404 171.481 124.172 171.284C123.968 171.06 123.866 170.807 123.866 170.526V143.159C123.866 142.85 123.968 142.597 124.172 142.401C124.404 142.204 124.666 142.106 124.957 142.106H129.671C130.369 142.106 130.878 142.415 131.198 143.032L138.88 156.295L146.561 143.032C146.881 142.415 147.391 142.106 148.089 142.106H152.759C153.079 142.106 153.341 142.204 153.544 142.401C153.777 142.597 153.894 142.85 153.894 143.159V170.526C153.894 170.835 153.777 171.088 153.544 171.284C153.341 171.481 153.079 171.579 152.759 171.579H147.565C147.245 171.579 146.969 171.481 146.736 171.284C146.532 171.088 146.43 170.835 146.43 170.526V154.737L141.542 163.537C141.164 164.183 140.655 164.505 140.015 164.505H137.745C137.367 164.505 137.061 164.421 136.829 164.253C136.596 164.084 136.392 163.846 136.218 163.537L131.286 154.737V170.526C131.286 170.807 131.184 171.06 130.98 171.284C130.776 171.481 130.515 171.579 130.195 171.579H124.957Z" fill="black"/>
<path d="M158.263 171.579C158.031 171.579 157.812 171.495 157.609 171.326C157.434 171.13 157.347 170.919 157.347 170.695C157.347 170.526 157.361 170.4 157.391 170.316L167.647 143.285C167.734 142.948 167.923 142.667 168.214 142.443C168.505 142.218 168.884 142.106 169.349 142.106H175.809C176.274 142.106 176.652 142.218 176.943 142.443C177.234 142.667 177.423 142.948 177.511 143.285L187.724 170.316L187.811 170.695C187.811 170.919 187.709 171.13 187.505 171.326C187.331 171.495 187.112 171.579 186.851 171.579H181.482C180.784 171.579 180.318 171.284 180.086 170.695L178.384 166.4H166.73L165.072 170.695C164.839 171.284 164.359 171.579 163.632 171.579H158.263ZM176.638 160.337L172.579 149.222L168.52 160.337H176.638Z" fill="black"/>
<path d="M192.342 171.579C192.051 171.579 191.789 171.481 191.556 171.284C191.353 171.06 191.251 170.807 191.251 170.526V143.159C191.251 142.85 191.353 142.597 191.556 142.401C191.789 142.204 192.051 142.106 192.342 142.106H197.841C198.161 142.106 198.423 142.204 198.627 142.401C198.83 142.597 198.932 142.85 198.932 143.159V152.506L207.007 142.906C207.356 142.373 207.923 142.106 208.709 142.106H214.993C215.255 142.106 215.474 142.204 215.648 142.401C215.823 142.569 215.91 142.766 215.91 142.99C215.91 143.187 215.866 143.355 215.779 143.495L205.304 156.211L216.565 170.189C216.681 170.302 216.739 170.47 216.739 170.695C216.739 170.919 216.652 171.13 216.477 171.326C216.303 171.495 216.085 171.579 215.823 171.579H209.32C208.621 171.579 208.039 171.298 207.574 170.737L198.932 160.337V170.526C198.932 170.835 198.83 171.088 198.627 171.284C198.423 171.481 198.161 171.579 197.841 171.579H192.342Z" fill="black"/>
<path d="M221.282 171.579C220.991 171.579 220.729 171.481 220.496 171.284C220.293 171.06 220.191 170.807 220.191 170.526V143.159C220.191 142.85 220.293 142.597 220.496 142.401C220.729 142.204 220.991 142.106 221.282 142.106H241.664C241.984 142.106 242.246 142.204 242.45 142.401C242.653 142.597 242.755 142.85 242.755 143.159V147.116C242.755 147.397 242.653 147.65 242.45 147.874C242.246 148.071 241.984 148.169 241.664 148.169H227.741V153.853H240.704C241.024 153.853 241.286 153.965 241.489 154.19C241.693 154.386 241.795 154.639 241.795 154.948V158.611C241.795 158.892 241.693 159.144 241.489 159.369C241.286 159.565 241.024 159.663 240.704 159.663H227.741V165.516H242.013C242.333 165.516 242.595 165.614 242.799 165.811C243.002 166.007 243.104 166.26 243.104 166.569V170.526C243.104 170.807 243.002 171.06 242.799 171.284C242.595 171.481 242.333 171.579 242.013 171.579H221.282Z" fill="black"/>
<path d="M249.157 171.579C248.866 171.579 248.604 171.481 248.371 171.284C248.167 171.06 248.065 170.807 248.065 170.526V143.159C248.065 142.85 248.167 142.597 248.371 142.401C248.604 142.204 248.866 142.106 249.157 142.106H261.028C264.84 142.106 267.807 142.948 269.931 144.632C272.085 146.288 273.161 148.646 273.161 151.706C273.161 153.671 272.681 155.341 271.721 156.716C270.761 158.092 269.437 159.144 267.749 159.874L273.728 170.232C273.816 170.4 273.859 170.554 273.859 170.695C273.859 170.919 273.758 171.13 273.554 171.326C273.379 171.495 273.176 171.579 272.943 171.579H267.138C266.294 171.579 265.698 171.2 265.349 170.442L260.373 161.179H255.921V170.526C255.921 170.835 255.805 171.088 255.572 171.284C255.369 171.481 255.107 171.579 254.787 171.579H249.157ZM260.941 155.2C262.279 155.2 263.297 154.892 263.996 154.274C264.694 153.629 265.043 152.744 265.043 151.622C265.043 150.499 264.694 149.615 263.996 148.969C263.327 148.295 262.308 147.958 260.941 147.958H255.921V155.2H260.941Z" fill="black"/>
<path d="M289.633 172C286.869 172 284.497 171.607 282.519 170.821C280.54 170.035 279.042 169.011 278.023 167.747C277.034 166.456 276.51 165.053 276.452 163.537C276.452 163.312 276.539 163.116 276.714 162.948C276.918 162.751 277.15 162.653 277.412 162.653H282.912C283.261 162.653 283.537 162.723 283.741 162.863C283.974 162.976 284.206 163.158 284.439 163.411C284.817 164.141 285.428 164.744 286.272 165.221C287.116 165.698 288.236 165.937 289.633 165.937C291.291 165.937 292.557 165.684 293.43 165.179C294.303 164.674 294.739 163.986 294.739 163.116C294.739 162.498 294.506 161.993 294.041 161.6C293.604 161.207 292.906 160.856 291.946 160.548C290.986 160.239 289.56 159.888 287.669 159.495C284.177 158.793 281.559 157.769 279.813 156.421C278.096 155.046 277.238 153.095 277.238 150.569C277.238 148.857 277.732 147.327 278.722 145.98C279.711 144.632 281.122 143.58 282.955 142.822C284.788 142.064 286.927 141.685 289.371 141.685C291.902 141.685 294.099 142.106 295.961 142.948C297.823 143.79 299.235 144.857 300.195 146.148C301.184 147.411 301.708 148.66 301.766 149.895C301.766 150.148 301.679 150.358 301.504 150.527C301.33 150.695 301.111 150.779 300.849 150.779H295.088C294.739 150.779 294.448 150.723 294.215 150.611C294.012 150.499 293.823 150.316 293.648 150.064C293.474 149.418 292.993 148.871 292.208 148.422C291.451 147.973 290.506 147.748 289.371 147.748C288.062 147.748 287.058 147.973 286.359 148.422C285.661 148.871 285.312 149.53 285.312 150.401C285.312 150.99 285.501 151.481 285.879 151.874C286.287 152.267 286.927 152.632 287.8 152.969C288.702 153.278 289.982 153.6 291.64 153.937C294.346 154.414 296.5 155.018 298.1 155.748C299.729 156.449 300.922 157.376 301.679 158.527C302.435 159.649 302.813 161.067 302.813 162.779C302.813 164.66 302.246 166.302 301.111 167.705C300.006 169.081 298.449 170.147 296.441 170.905C294.463 171.635 292.193 172 289.633 172Z" fill="black"/>
<path d="M308.273 171.579C307.982 171.579 307.72 171.481 307.487 171.284C307.283 171.06 307.182 170.807 307.182 170.526V143.159C307.182 142.85 307.283 142.597 307.487 142.401C307.72 142.204 307.982 142.106 308.273 142.106H320.493C324.218 142.106 327.142 142.934 329.266 144.59C331.419 146.246 332.495 148.66 332.495 151.832C332.495 154.976 331.433 157.348 329.309 158.948C327.185 160.52 324.247 161.305 320.493 161.305H315.3V170.526C315.3 170.835 315.183 171.088 314.95 171.284C314.747 171.481 314.485 171.579 314.165 171.579H308.273ZM320.275 155.495C321.555 155.495 322.559 155.186 323.286 154.569C324.014 153.923 324.378 152.983 324.378 151.748C324.378 150.597 324.028 149.685 323.33 149.011C322.661 148.309 321.643 147.958 320.275 147.958H315.169V155.495H320.275Z" fill="black"/>
<path d="M332.842 171.579C332.609 171.579 332.391 171.495 332.187 171.326C332.012 171.13 331.925 170.919 331.925 170.695C331.925 170.526 331.94 170.4 331.969 170.316L342.225 143.285C342.312 142.948 342.502 142.667 342.793 142.443C343.083 142.218 343.462 142.106 343.927 142.106H350.387C350.852 142.106 351.23 142.218 351.521 142.443C351.812 142.667 352.002 142.948 352.089 143.285L362.302 170.316L362.389 170.695C362.389 170.919 362.287 171.13 362.083 171.326C361.909 171.495 361.691 171.579 361.429 171.579H356.06C355.362 171.579 354.897 171.284 354.664 170.695L352.962 166.4H341.309L339.65 170.695C339.417 171.284 338.937 171.579 338.21 171.579H332.842ZM351.216 160.337L347.157 149.222L343.098 160.337H351.216Z" fill="black"/>
<path d="M377.716 172C373.555 172 370.296 171.032 367.939 169.095C365.612 167.13 364.375 164.295 364.229 160.59C364.2 159.832 364.186 158.597 364.186 156.885C364.186 155.144 364.2 153.881 364.229 153.095C364.375 149.446 365.641 146.639 368.027 144.674C370.412 142.681 373.642 141.685 377.716 141.685C380.276 141.685 382.575 142.106 384.611 142.948C386.648 143.762 388.249 144.941 389.412 146.485C390.605 148.001 391.216 149.783 391.245 151.832V151.916C391.245 152.141 391.144 152.337 390.94 152.506C390.765 152.646 390.562 152.716 390.329 152.716H384.437C384.059 152.716 383.768 152.646 383.564 152.506C383.36 152.337 383.186 152.043 383.04 151.622C382.633 150.19 381.993 149.194 381.12 148.632C380.247 148.043 379.098 147.748 377.672 147.748C374.239 147.748 372.464 149.601 372.347 153.306C372.318 154.064 372.304 155.228 372.304 156.8C372.304 158.372 372.318 159.565 372.347 160.379C372.464 164.084 374.239 165.937 377.672 165.937C379.098 165.937 380.262 165.642 381.164 165.053C382.066 164.435 382.691 163.439 383.04 162.063C383.157 161.642 383.317 161.362 383.52 161.221C383.724 161.053 384.03 160.969 384.437 160.969H390.329C390.591 160.969 390.809 161.053 390.984 161.221C391.187 161.39 391.275 161.6 391.245 161.853C391.216 163.902 390.605 165.698 389.412 167.242C388.249 168.758 386.648 169.937 384.611 170.779C382.575 171.593 380.276 172 377.716 172Z" fill="black"/>
<path d="M396.926 171.579C396.635 171.579 396.373 171.481 396.14 171.284C395.936 171.06 395.835 170.807 395.835 170.526V143.159C395.835 142.85 395.936 142.597 396.14 142.401C396.373 142.204 396.635 142.106 396.926 142.106H417.308C417.628 142.106 417.89 142.204 418.093 142.401C418.297 142.597 418.399 142.85 418.399 143.159V147.116C418.399 147.397 418.297 147.65 418.093 147.874C417.89 148.071 417.628 148.169 417.308 148.169H403.385V153.853H416.348C416.668 153.853 416.929 153.965 417.133 154.19C417.337 154.386 417.439 154.639 417.439 154.948V158.611C417.439 158.892 417.337 159.144 417.133 159.369C416.929 159.565 416.668 159.663 416.348 159.663H403.385V165.516H417.657C417.977 165.516 418.239 165.614 418.442 165.811C418.646 166.007 418.748 166.26 418.748 166.569V170.526C418.748 170.807 418.646 171.06 418.442 171.284C418.239 171.481 417.977 171.579 417.657 171.579H396.926Z" fill="black"/>
<path d="M470 2L470 202" stroke="black" stroke-width="4" stroke-linecap="round"/>
<path d="M544.5 151L516.6 41.5H538.65L561.3 136.75L555.45 133.3H570.45L563.85 136.75L581.7 45.7H600L577.8 151H544.5ZM609.9 151L585.75 45.7H604.8L625.35 136.75L618.9 133.3H633.6L627.9 136.75L647.85 41.5H668.7L643.8 151H609.9ZM686.029 151V41.5H707.329V151H686.029ZM805.604 151L765.554 99.85H750.104L797.654 41.5H822.104L779.204 94L778.604 83.5L831.554 151H805.604ZM734.654 151V41.5H755.954V151H734.654ZM844.085 151V41.5H865.385V151H844.085Z" fill="black"/>
</svg>
