<?xml version="1.0" encoding="UTF-8" standalone="no"?>
<svg
   id="Layer_1"
   data-name="Layer 1"
   viewBox="0 0 420.98 272.28"
   version="1.1"
   sodipodi:docname="stainedglass-mountains.svg"
   inkscape:version="1.4.2 (ebf0e940d0, 2025-05-08)"
   xmlns:inkscape="http://www.inkscape.org/namespaces/inkscape"
   xmlns:sodipodi="http://sodipodi.sourceforge.net/DTD/sodipodi-0.dtd"
   xmlns="http://www.w3.org/2000/svg"
   xmlns:svg="http://www.w3.org/2000/svg">
  <sodipodi:namedview
     id="namedview1"
     pagecolor="#ffffff"
     bordercolor="#000000"
     borderopacity="0.25"
     inkscape:showpageshadow="2"
     inkscape:pageopacity="0.0"
     inkscape:pagecheckerboard="0"
     inkscape:deskcolor="#d1d1d1"
     inkscape:zoom="0.88500518"
     inkscape:cx="202.2587"
     inkscape:cy="231.63706"
     inkscape:window-width="1904"
     inkscape:window-height="1115"
     inkscape:window-x="26"
     inkscape:window-y="23"
     inkscape:window-maximized="0"
     inkscape:current-layer="Layer_1">
    <inkscape:page
       x="0"
       y="0"
       width="420.98001"
       height="272.28"
       id="page1"
       margin="0"
       bleed="0" />
    <inkscape:page
       x="456.16824"
       y="0.93877292"
       width="420.97998"
       height="272.28"
       id="page2"
       margin="0"
       bleed="0" />
  </sodipodi:namedview>
  <defs
     id="defs1">
    <style
       id="style1">
      .cls-1 {
        fill: none;
        stroke: #ec008c;
        stroke-miterlimit: 10;
        stroke-width: .25px;
      }
    </style>
  </defs>
  <path
     class="cls-1"
     d="m.12.12v272.03h420.73V.12H.12Zm135.88,152.2L5.22,197.54v-66.07h128.72c-.3,6.9.41,14.05,2.06,20.85Zm189.68,61.11l.41.51c-23.22-10.56-11.36,4.23-3.03,13.34-5.76-1.05-9.76-6.14-15.38-7.74-.48-1.22-2.09-1.94-3.3-1.41-2.65-5.08-14.73-5.64-21.09-7.22-.54-1.28-1.74-2.29-2.85-2.71-13.01-4.95-26.33-9.68-39.57-14.06h0c-2.13-1.05-18.57-5.44-13,2.91.98.24,1.93.62,2.76,1.23-2.65,1.65-3.37,5.26.68,5.54.71.42,1.38,1.43-.12,3.83-11.72,13.79-11.79-4.57-21.99-.87-5.86,5.55,7.94,9.09,2.36,13.91-4.91,2.75-7.75-3.15-5.73-7.89.2-.55.09-1.17-.29-1.61.39-.92-5.99-1.23-13.18-1.08,3.31-14.4-13.12-14.59-24.12-14.84,1.57-1.29,3.04-2.6,4.44-3.94l2.55,1.57h0c6.91,1.45,9.62-4.7,11.36-8.06,3.18-5.08,8.29-9.04,12.75-13.15,8.48-8.78,8.44,3.25,17.23-.53l1.95-6.49c2.34,4.24,10.27,8.41,11.77,1.22,4.11,8.01,18.64,5.25,22.38-2.06,5.39,3.71,33.97,23.71,40.1,27.88.97-3.18,2.56-4.34,7.37-3.92,8.66,7.82,27.98,17.77,39.55,24.99-.04.43-.08.87-.13,1.32-2.42-1.02-9.07-3.85-10.92-4.62-2.31-1.15-4.72,2.05-3,3.96Zm-69.64,32.21c.13,4.98-10.62,5.68-12,2.1-5.77-6.34-22-12.22-24.59-.52-4.21-3.2-9.73-5.14-14.86-3.79-9.25,1.32-21.18-.44-26.04-6.3-3.18-7.2-15.76-9.52-22.05-12.55-.12-3.58-3.62-6.19-5.63-8.67,6.94-3.85,4.1-12.58,9.04-11.41l.25-3.25c.72-.48,1.42-.96,2.11-1.44,1.17.28,16.23,1.21,17.26,1.34,7.86.4,9.25,3.06,7.15,10.73-.48,1.56.82,3.26,2.45,3.24v-.05c1.18.12,9.59.16,10.98.2-2.03,13.49,19.28,15.39,17.76,1.17,7.1,6.05,24.49-6.71,17.81-15.56,1-.63,1.51-1.79,1.34-2.63,13.77,4.45,27.59,9.4,41.09,14.5-.05,1.24.8,2.35,2.01,2.6,0,0,17.47,3.74,17.47,3.74,2.08.07,2.22,2.31,3.73,3.28.88,3.1,6.61.96,11,5.34,3.97,3.98,11.48,3.15,13.77,8.36-3.75.56-15.63.95-19.43.54-7.71-10.63-16.63-19.85-30.53-14.41l10.07,7.8c-2.65,2.08-2.88,6.19-4.85,8.13-7.86-5.31-19.62-.07-26.11,5.72l.81,1.76Zm-15.33-80.39c-4.06,1.16-5.57-.65-7.13-4.02,4.68.46,10.74-3.01,14.81-.28-.58,2.74-4.39,3.85-7.68,4.3Zm-16.1-1.59c.01.06.03.12.04.18-2.68-2.83-5.11-7.52-8.19-5.51-2.89,1.67-2.7,5.78-3.82,8.26-5.7-6.17-13.4-2.76-19.46,3.77-6.46,4.61-10.65,12.17-15.41,18.28l-.02-2.65c8.18-9.06,9.04-18.4-1.51-20.35l.19-2.18c-.26-.14-.92-.53-1.18-.66,25.06-9.45,23.28-15.97,49.88-3.24-.64,1.27-.84,2.73-.52,4.11ZM41.69,245.24c3.94-1.91,15.05-4.75,18.15-8,3.89-8.02,5.69-4.76,12.23-8.65,11.92,6.32,30.05-1.04,41.8-6.63,3.34-2.1,6.86-2.27,10.68-2.82,9.98-2.24,17.84-7.85,26.83-12.48-1.38,6.4-10.7,6.78-2.35,14.82,2.08,1.48,2.38,3.48,2.88,5.84,1.6,5.44,6.87,11.47,9.75,16.14-8.9,7.98-19.4,12.78-30.34,7.11-16.92-10.12-38.37,9.8-50.13-4.51-3.66.15-7.37.15-11-.02-3.83-15.5-27.57,18.99-44.97,4.27,5.92-1.02,11.5-3.16,16.49-5.07Zm44.41-32.86c25.93-15.16,42.16-7.73,63.36-35.82l.19.24c5.82-5.88,15.41-3.91,21.33-9.32l-.51,6.01c2.04-1.12,6.56-4.75,8.19-1.05-3.73,18.23-28.24,28.23-42.68,36.7-7.49,5.32-16.69,4.25-24.49,8.28-6.87,3.89-32.69,13.62-38.39,5.08l-3.55.68c-.77,3.49-8.06,2.35-10.43,5.68-2.21,2.43-2.32,5.77-5.97,6.51-9.9,3.51-20.69,8.88-30.88,10.18l-1.8-.88-.51,1.08c-4.64.17-9.11-.33-12.39-3.61,25.52-11.68,53.92-16.86,78.52-29.76Zm181.51-44.41c-31.73-25.23-21.34-3.76-48.38-16.29-9.73-5.05-20.27-6.69-29.35-.55-13.41,6.67-28.89,10.02-41.03,19.31-28.12-42.53,7.14-107.8,58.68-105.36,50.9-1.55,85.68,59.28,60.08,102.89Zm-123.57,6.7c-9.17,12.46-20.62,19.7-36.25,23.17-8.54,2.51-17.36,5.11-24.71,10.42-24.6,12.3-52.54,17.83-77.87,29.31v-34.62l132.16-45.7c1.83,5.78,4.37,11.33,7.56,16.52-.32.3-.62.6-.91.89ZM5.22,246.85c3.6,3.23,9.48,4.25,14.52,4.03,2.79,7.25,12.8,7.99,15.92,8.04,10.48.36,20.18-6.76,29.22-12.01l.08,3.9c4.57.38,9.19.55,13.84.44,11.69,11.88,28.79-.1,42.54,1.62,20.97,7.68,29.13,7.92,47.06-8.43-2.15-3.67-6.29-9.15-8.85-13.16,19.56,5.85,10.2,10.49,25.9,15.73,8.41,3.43,17.95.67,26.36,1.62,4.49,2.59,9.27,6.8,14.76,1.7-7.48-7.67,9.17-3.95,12.42-.49,4.82,8.51,22.13,6.42,22.2-4.26,4.3-3.1,9.8-4.66,15.04-4.28l-.65.97c12.07,5.57,9.75-6.78,16.57-10.44-.02,0-.07,0-.13-.02l1.8-2.24c5.23,3.55,7.54,13.33,15.14,12.4,5.94-.81,16.6,1.37,21.94-2.73,2.7,3.38,7.18,3.8,10.93,4.37,5.69.72,11.06,3.36,15.94,6.29.08-2.11.2-4.9-.08-6.82.36.27,1.99,2,2.42,1.84,4.45-1.63,1.41-10.01-1.74-13.94,2.05.17,4.17-.27,6.07-.96,2.35,2.95,6.12,3.12,9.3,2.37,6.02,2.52,12.41,1.73,18.58,3.56,0,0,14.48,3.96,14.48,3.96.88.21,1.23.35,1.71,1.05,1.87,2.52,4.9,3.78,7.26,4.15v21.93H5.22v-20.18Zm407.32-9.01c-1.03-1.64-3.08-2.66-4.54-2.91v.02c-6.61-1.61-16.57-5.33-23.42-5.47-4.62.43-8.98-3.2-13.26-1.95-3.19.8-2.77-2.11-5.85-2.54-5.4.6-10.51,2.24-14-3.53l-3.89-1.01c-3.37,1.84-.43,7.55,1.11,9.08,2.51,2.47,6.02,3.24,6.86,7.05l-2.5-.29s-1.21-1.39-1.23-1.41l-2.26,1.97h0c1.09,1.25,1.93,2.72,2.49,4.31-4.88-3.01-14.05-1.45-17.52-5.69,1.02-7.29-9.61-11.36-12.73-17.53,3.76.49,12.43,5.81,13.37-.17,3.83,1.94,9.25,4.07,9.41-2.12,6.69,4.69,15.73,1.79,21.23,7.04,1.75-2.05,4.45-3.53,7.05-3.01,5.94-2.23,12.93-2.2,17.16,3.24,4.9-.02,7.79,6.26,12.99,4.29,2.22,1.12,9.09,3.14,12.78,4.14v8.51c-1.25-.35-2.5-1-3.22-2.02Zm3.22-11.79c-6.96-1.25-11.29-5.31-14.84-3.52-4.67-3.14-9.58-5.1-14.16-8.34-7.48-2.23-14.54-.4-21.17,2-7.08-3.18-13.6-1.13-20.74-6.28-.37-1.07-1.55-1.84-2.73-1.64-10.32-6.69-31.06-17-39.71-25.42-3.4-.37-7.74-.74-10.97,1.7l-19.64-13.67c2.33-4.21,4.25-8.64,5.73-13.23l138.22,47.79v20.6ZM251.48,74.75c-23.37-18.13-57.28-19.67-82.25-3.87L119.46,5.24h184.72l-52.71,69.5Zm-106.37,20.23L5.22,46.61V5.24h107.84l51.91,68.45c-7.89,5.68-14.72,12.99-19.86,21.28ZM5.22,52.02l137.31,47.48c-4.43,8.39-7.19,17.4-8.21,26.85H5.22V52.02Zm410.54,148.02l-136.81-47.3c1.72-6.94,2.47-14.23,2.17-21.26h134.65v68.57Zm0-73.69h-135.03c-1.03-9.53-3.82-18.61-8.32-27.06l143.35-49.56v76.62Zm0-82.04l-145.94,50.46c-3.94-6.31-8.77-11.96-14.37-16.83L310.45,5.43c11.32-.75,80.33.07,105.31-.15v39.04Z"
     id="path1"
     style="fill:#000000;fill-opacity:1;stroke:none" />
  <path
     class="cls-1"
     d="M 456.29326,1.0637729 V 273.09377 h 420.73 V 1.0637729 Z m 135.88,152.1999971 -130.78,45.22 v -66.07 h 128.72 c -0.3,6.9 0.41,14.05 2.06,20.85 z m 189.68,61.11 0.41,0.51 c -23.22,-10.56 -11.36,4.23 -3.03,13.34 -5.76,-1.05 -9.76,-6.14 -15.38,-7.74 -0.48,-1.22 -2.09,-1.94 -3.3,-1.41 -2.65,-5.08 -14.73,-5.64 -21.09,-7.22 -0.54,-1.28 -1.74,-2.29 -2.85,-2.71 -13.01,-4.95 -26.33,-9.68 -39.57,-14.06 v 0 c -2.13,-1.05 -18.57,-5.44 -13,2.91 0.98,0.24 1.93,0.62 2.76,1.23 -2.65,1.65 -3.37,5.26 0.68,5.54 0.71,0.42 1.38,1.43 -0.12,3.83 -11.72,13.79 -11.79,-4.57 -21.99,-0.87 -5.86,5.55 7.94,9.09 2.36,13.91 -4.91,2.75 -7.75,-3.15 -5.73,-7.89 0.2,-0.55 0.09,-1.17 -0.29,-1.61 0.39,-0.92 -5.99,-1.23 -13.18,-1.08 3.31,-14.4 -13.12,-14.59 -24.12,-14.84 1.57,-1.29 3.04,-2.6 4.44,-3.94 l 2.55,1.57 v 0 c 6.91,1.45 9.62,-4.7 11.36,-8.06 3.18,-5.08 8.29,-9.04 12.75,-13.15 8.48,-8.78 8.44,3.25 17.23,-0.53 l 1.95,-6.49 c 2.34,4.24 10.27,8.41 11.77,1.22 4.11,8.01 18.64,5.25 22.38,-2.06 5.39,3.71 33.97,23.71 40.1,27.88 0.97,-3.18 2.56,-4.34 7.37,-3.92 8.66,7.82 27.98,17.77 39.55,24.99 -0.04,0.43 -0.08,0.87 -0.13,1.32 -2.42,-1.02 -9.07,-3.85 -10.92,-4.62 -2.31,-1.15 -4.72,2.05 -3,3.96 z m -69.64,32.21 c 0.13,4.98 -10.62,5.68 -12,2.1 -5.77,-6.34 -22,-12.22 -24.59,-0.52 -4.21,-3.2 -9.73,-5.14 -14.86,-3.79 -9.25,1.32 -21.18,-0.44 -26.04,-6.3 -3.18,-7.2 -15.76,-9.52 -22.05,-12.55 -0.12,-3.58 -3.62,-6.19 -5.63,-8.67 6.94,-3.85 4.1,-12.58 9.04,-11.41 l 0.25,-3.25 c 0.72,-0.48 1.42,-0.96 2.11,-1.44 1.17,0.28 16.23,1.21 17.26,1.34 7.86,0.4 9.25,3.06 7.15,10.73 -0.48,1.56 0.82,3.26 2.45,3.24 v -0.05 c 1.18,0.12 9.59,0.16 10.98,0.2 -2.03,13.49 19.28,15.39 17.76,1.17 7.1,6.05 24.49,-6.71 17.81,-15.56 1,-0.63 1.51,-1.79 1.34,-2.63 13.77,4.45 27.59,9.4 41.09,14.5 -0.05,1.24 0.8,2.35 2.01,2.6 0,0 17.47,3.74 17.47,3.74 2.08,0.07 2.22,2.31 3.73,3.28 0.88,3.1 6.61,0.96 11,5.34 3.97,3.98 11.48,3.15 13.77,8.36 -3.75,0.56 -15.63,0.95 -19.43,0.54 -7.71,-10.63 -16.63,-19.85 -30.53,-14.41 l 10.07,7.8 c -2.65,2.08 -2.88,6.19 -4.85,8.13 -7.86,-5.31 -19.62,-0.07 -26.11,5.72 l 0.81,1.76 z m -15.33,-80.39 c -4.06,1.16 -5.57,-0.65 -7.13,-4.02 4.68,0.46 10.74,-3.01 14.81,-0.28 -0.58,2.74 -4.39,3.85 -7.68,4.3 z m -16.1,-1.59 c 0.01,0.06 0.03,0.12 0.04,0.18 -2.68,-2.83 -5.11,-7.52 -8.19,-5.51 -2.89,1.67 -2.7,5.78 -3.82,8.26 -5.7,-6.17 -13.4,-2.76 -19.46,3.77 -6.46,4.61 -10.65,12.17 -15.41,18.28 l -0.02,-2.65 c 8.18,-9.06 9.04,-18.4 -1.51,-20.35 l 0.19,-2.18 c -0.26,-0.14 -0.92,-0.53 -1.18,-0.66 25.06,-9.45 23.28,-15.97 49.88,-3.24 -0.64,1.27 -0.84,2.73 -0.52,4.11 z m -182.92,81.58 c 3.94,-1.91 15.05,-4.75 18.15,-8 3.89,-8.02 5.69,-4.76 12.23,-8.65 11.92,6.32 30.05,-1.04 41.8,-6.63 3.34,-2.1 6.86,-2.27 10.68,-2.82 9.98,-2.24 17.84,-7.85 26.83,-12.48 -1.38,6.4 -10.7,6.78 -2.35,14.82 2.08,1.48 2.38,3.48 2.88,5.84 1.6,5.44 6.87,11.47 9.75,16.14 -8.9,7.98 -19.4,12.78 -30.34,7.11 -16.92,-10.12 -38.37,9.8 -50.13,-4.51 -3.66,0.15 -7.37,0.15 -11,-0.02 -3.83,-15.5 -27.57,18.99 -44.97,4.27 5.92,-1.02 11.5,-3.16 16.49,-5.07 z m 44.41,-32.86 c 25.93,-15.16 42.16,-7.73 63.36,-35.82 l 0.19,0.24 c 5.82,-5.88 15.41,-3.91 21.33,-9.32 l -0.51,6.01 c 2.04,-1.12 6.56,-4.75 8.19,-1.05 -3.73,18.23 -28.24,28.23 -42.68,36.7 -7.49,5.32 -16.69,4.25 -24.49,8.28 -6.87,3.89 -32.69,13.62 -38.39,5.08 l -3.55,0.68 c -0.77,3.49 -8.06,2.35 -10.43,5.68 -2.21,2.43 -2.32,5.77 -5.97,6.51 -9.9,3.51 -20.69,8.88 -30.88,10.18 l -1.8,-0.88 -0.51,1.08 c -4.64,0.17 -9.11,-0.33 -12.39,-3.61 25.52,-11.68 53.92,-16.86 78.52,-29.76 z m 181.51,-44.41 c -31.73,-25.23 -21.34,-3.76 -48.38,-16.29 -9.73,-5.05 -20.27,-6.69 -29.35,-0.55 -13.41,6.67 -28.89,10.02 -41.03,19.31 -28.12,-42.53 7.14,-107.799997 58.68,-105.359997 50.9,-1.55 85.68,59.279997 60.08,102.889997 z m -123.57,6.7 c -9.17,12.46 -20.62,19.7 -36.25,23.17 -8.54,2.51 -17.36,5.11 -24.71,10.42 -24.6,12.3 -52.54,17.83 -77.87,29.31 v -34.62 l 132.16,-45.7 c 1.83,5.78 4.37,11.33 7.56,16.52 -0.32,0.3 -0.62,0.6 -0.91,0.89 z m -138.82,72.18 c 3.6,3.23 9.48,4.25 14.52,4.03 2.79,7.25 12.8,7.99 15.92,8.04 10.48,0.36 20.18,-6.76 29.22,-12.01 l 0.08,3.9 c 4.57,0.38 9.19,0.55 13.84,0.44 11.69,11.88 28.79,-0.1 42.54,1.62 20.97,7.68 29.13,7.92 47.06,-8.43 -2.15,-3.67 -6.29,-9.15 -8.85,-13.16 19.56,5.85 10.2,10.49 25.9,15.73 8.41,3.43 17.95,0.67 26.36,1.62 4.49,2.59 9.27,6.8 14.76,1.7 -7.48,-7.67 9.17,-3.95 12.42,-0.49 4.82,8.51 22.13,6.42 22.2,-4.26 4.3,-3.1 9.8,-4.66 15.04,-4.28 l -0.65,0.97 c 12.07,5.57 9.75,-6.78 16.57,-10.44 -0.02,0 -0.07,0 -0.13,-0.02 l 1.8,-2.24 c 5.23,3.55 7.54,13.33 15.14,12.4 5.94,-0.81 16.6,1.37 21.94,-2.73 2.7,3.38 7.18,3.8 10.93,4.37 5.69,0.72 11.06,3.36 15.94,6.29 0.08,-2.11 0.2,-4.9 -0.08,-6.82 0.36,0.27 1.99,2 2.42,1.84 4.45,-1.63 1.41,-10.01 -1.74,-13.94 2.05,0.17 4.17,-0.27 6.07,-0.96 2.35,2.95 6.12,3.12 9.3,2.37 6.02,2.52 12.41,1.73 18.58,3.56 0,0 14.48,3.96 14.48,3.96 0.88,0.21 1.23,0.35 1.71,1.05 1.87,2.52 4.9,3.78 7.26,4.15 v 21.93 h -410.55 v -20.18 z m 407.32,-9.01 c -1.03,-1.64 -3.08,-2.66 -4.54,-2.91 v 0.02 c -6.61,-1.61 -16.57,-5.33 -23.42,-5.47 -4.62,0.43 -8.98,-3.2 -13.26,-1.95 -3.19,0.8 -2.77,-2.11 -5.85,-2.54 -5.4,0.6 -10.51,2.24 -14,-3.53 l -3.89,-1.01 c -3.37,1.84 -0.43,7.55 1.11,9.08 2.51,2.47 6.02,3.24 6.86,7.05 l -2.5,-0.29 c 0,0 -1.21,-1.39 -1.23,-1.41 l -2.26,1.97 v 0 c 1.09,1.25 1.93,2.72 2.49,4.31 -4.88,-3.01 -14.05,-1.45 -17.52,-5.69 1.02,-7.29 -9.61,-11.36 -12.73,-17.53 3.76,0.49 12.43,5.81 13.37,-0.17 3.83,1.94 9.25,4.07 9.41,-2.12 6.69,4.69 15.73,1.79 21.23,7.04 1.75,-2.05 4.45,-3.53 7.05,-3.01 5.94,-2.23 12.93,-2.2 17.16,3.24 4.9,-0.02 7.79,6.26 12.99,4.29 2.22,1.12 9.09,3.14 12.78,4.14 v 8.51 c -1.25,-0.35 -2.5,-1 -3.22,-2.02 z m 3.22,-11.79 c -6.96,-1.25 -11.29,-5.31 -14.84,-3.52 -4.67,-3.14 -9.58,-5.1 -14.16,-8.34 -7.48,-2.23 -14.54,-0.4 -21.17,2 -7.08,-3.18 -13.6,-1.13 -20.74,-6.28 -0.37,-1.07 -1.55,-1.84 -2.73,-1.64 -10.32,-6.69 -31.06,-17 -39.71,-25.42 -3.4,-0.37 -7.74,-0.74 -10.97,1.7 l -19.64,-13.67 c 2.33,-4.21 4.25,-8.64 5.73,-13.23 l 138.22,47.79 v 20.6 z m -164.28,-151.299997 c -23.37,-18.13 -57.28,-19.67 -82.25,-3.87 l -49.77,-65.6400001 h 184.72 l -52.71,69.5000001 z m -106.37,20.23 -139.89,-48.37 V 6.1837729 h 107.84 l 51.91,68.4500001 c -7.89,5.68 -14.72,12.99 -19.86,21.28 z m -139.89,-42.96 137.31,47.479997 c -4.43,8.39 -7.19,17.4 -8.21,26.85 h -129.1 z m 410.54,148.019997 -136.81,-47.3 c 1.72,-6.94 2.47,-14.23 2.17,-21.26 h 134.65 v 68.57 z m 0,-73.69 h -135.03 c -1.03,-9.53 -3.82,-18.61 -8.32,-27.06 l 143.35,-49.559997 z m 0,-82.039997 -145.94,50.46 c -3.94,-6.31 -8.77,-11.96 -14.37,-16.83 l 55,-72.5100001 c 11.32,-0.75 80.33,0.07 105.31,-0.15 V 45.263773 Z"
     id="path1-5"
     style="fill:none;stroke:#ff0000;stroke-width:0.072;stroke-miterlimit:10;stroke-opacity:1;stroke-dasharray:none" />
</svg>
